# xmcd
#
# Track frame offsets: 
#        150
#        16946
#        32348
#        50267
#        72247
#        88860
#        101257
#        116949
#        132074
#        145996
#        161536
#        176514
#        194753
#
# Disc length: 2960 seconds
#
# Revision: 1
# Processed by: cddbd v1.5.2PL0 Copyright (c) Steve Scherf et al.
# Submitted via: ExactAudioCopy v1.0b3
#
DISCID=ad0b8e0d
DTITLE=Shooter Jennings - The Wolf
DYEAR=2007
DGENRE=Country
TTITLE0=This Ol Wheel
TTITLE1=Tangled Up Roses
TTITLE2=Walk Of Life
TTITLE3=Old Friend
TTITLE4=Slow Train
TTITLE5=Time Management 101
TTITLE6=Concrete Cowboys
TTITLE7=Higher
TTITLE8=Blood From A Stone
TTITLE9=Last Time I Let You Down
TTITLE10=She Lives In Color
TTITLE11=The Wolf
TTITLE12=A Matter Of Time
EXTD=
EXTT0=
EXTT1=
EXTT2=
EXTT3=
EXTT4=
EXTT5=
EXTT6=
EXTT7=
EXTT8=
EXTT9=
EXTT10=
EXTT11=
EXTT12=
PLAYORDER=
